<svg width="150" height="150" viewBox="0 0 150 150" fill="none" xmlns="http://www.w3.org/2000/svg"><g clip-path="url(#clip0)" fill="#181818"><path d="M140.183 52.603c2.711-4.355 4.912-9.564 5.147-15.2a17.14 17.14 0 00-4.658-12.45c-3.111-3.28-7.292-5.112-11.77-5.16h-.185a16.495 16.495 0 00-10.664 3.874c-12.274-9.47-27.5-14.67-43.053-14.67a70.785 70.785 0 00-29.415 6.422c-.337-3.817-1.953-7.468-4.602-10.259C37.872 1.881 33.692.05 29.213.001L29.028 0a16.512 16.512 0 00-11.694 4.808 16.515 16.515 0 00-4.935 11.823c0 7.4 3.473 14.12 7.228 19.225A70.267 70.267 0 009.16 54.235a2.195 2.195 0 004.097 1.573 65.858 65.858 0 019.095-16.304 15.444 15.444 0 00-.087 1.554V51.72c0 2.1 1.157 4.01 3.018 4.983.822.43 1.717.644 2.608.644a5.616 5.616 0 003.206-1.007l7.864-5.46a13.021 13.021 0 017.46-2.336h10.122c3.925 0 7.616-1.529 10.392-4.305l9.988-9.988c3.356-3.356 3.542-8.787.422-12.364l-4.864-5.577a3.463 3.463 0 01-.797-2.834 66.587 66.587 0 013.315-.09c14.46 0 28.617 4.794 40.074 13.53a16.494 16.494 0 00-2.986 9.508c0 3.04.59 5.965 1.542 8.712a25.713 25.713 0 002.026 14.013l4.269 9.504a14.216 14.216 0 0012.949 8.38c2.831 0 5.57-.836 7.92-2.415l.136-.092c.122 1.648.183 3.306.183 4.973 0 36.455-29.658 66.113-66.113 66.113S8.887 115.954 8.887 79.499a66.45 66.45 0 011.742-15.146 2.194 2.194 0 10-4.272-1.001A70.84 70.84 0 004.5 79.499c0 18.832 7.333 36.536 20.65 49.852C38.463 142.667 56.168 150 75 150s36.536-7.333 49.852-20.649c13.316-13.316 20.649-31.021 20.649-49.852 0-9.32-1.792-18.363-5.318-26.896zM20.42 7.927a12.157 12.157 0 018.746-3.538c3.28.035 6.347 1.382 8.633 3.792a12.729 12.729 0 013.458 9.246c-.408 9.778-8.267 18.579-11.627 21.908a.853.853 0 01-1.197.002c-3.502-3.47-11.646-12.627-11.646-22.706 0-3.295 1.29-6.386 3.633-8.704zm48.755 11.267l4.864 5.577a4.687 4.687 0 01-.218 6.377l-9.988 9.988a10.24 10.24 0 01-7.29 3.02h-10.12a17.39 17.39 0 00-9.963 3.119l-7.865 5.46a1.207 1.207 0 01-1.277.08c-.2-.105-.663-.42-.663-1.095v-8.322a5.261 5.261 0 006.065-.945c4.232-4.194 11.138-12.349 12.644-22.06a66.171 66.171 0 0121.894-6.549 7.853 7.853 0 001.917 5.35zm59.544 4.986l.135.001c3.281.035 6.348 1.382 8.634 3.792a12.73 12.73 0 013.458 9.246c-.408 9.778-8.267 18.579-11.627 21.908a.853.853 0 01-1.197.003c-3.502-3.47-11.646-12.629-11.646-22.706 0-3.296 1.291-6.387 3.634-8.705a12.155 12.155 0 018.609-3.539zm9.626 46.795a9.771 9.771 0 01-5.471 1.668 9.82 9.82 0 01-8.946-5.788l-4.269-9.505a21.395 21.395 0 01-.953-2.551c2.164 3.075 4.483 5.621 6.327 7.448a5.22 5.22 0 003.685 1.51 5.227 5.227 0 003.69-1.513 57.421 57.421 0 004.747-5.328 65.327 65.327 0 013.226 12.69l-2.036 1.37z"/><path d="M128.72 46.224c5.105 0 9.258-4.153 9.258-9.258 0-5.105-4.153-9.259-9.258-9.259-5.105 0-9.259 4.154-9.259 9.259s4.154 9.258 9.259 9.258zm0-14.128a4.876 4.876 0 014.87 4.87 4.876 4.876 0 01-4.87 4.87 4.875 4.875 0 01-4.87-4.87 4.875 4.875 0 014.87-4.87zM95.267 47.978c-3.112-3.279-7.291-5.111-11.77-5.16h-.185a16.515 16.515 0 00-11.694 4.807 16.507 16.507 0 00-4.6 8.476 15.018 15.018 0 00-12.898 6.318l-7.373 10.415a13.3 13.3 0 00-1.015 13.715 16.58 16.58 0 00-1.435 6.77c0 9.665 5.924 18.171 10.665 23.431l-.478 12.97a9.162 9.162 0 009.165 9.503 9.163 9.163 0 005.232-1.635l20.197-14.031a32.782 32.782 0 008.073-8.002l6.098-8.613a2.194 2.194 0 00-3.582-2.536l-6.098 8.613a28.386 28.386 0 01-6.995 6.934l-20.197 14.032a4.795 4.795 0 01-5.502-.032 4.771 4.771 0 01-2.006-4.072l.358-9.515a5.223 5.223 0 005.39-1.226c4.63-4.589 12.467-13.918 12.922-24.842a17.142 17.142 0 00-4.659-12.45c-3.111-3.28-7.291-5.111-11.77-5.16a16.514 16.514 0 00-11.879 4.808c-.148.146-.29.297-.431.449a8.92 8.92 0 011.528-6.576l7.373-10.414a10.627 10.627 0 019.004-4.47c.472 10.863 8.236 20.144 12.922 24.787a5.22 5.22 0 003.686 1.51 5.226 5.226 0 003.69-1.512c1.91-1.893 4.365-4.595 6.624-7.881l11.385 8.06a6.548 6.548 0 012.689 4.268 6.55 6.55 0 01-1.117 4.918l-1.601 2.261a2.195 2.195 0 003.581 2.536l1.601-2.26a10.903 10.903 0 001.861-8.195 10.906 10.906 0 00-4.478-7.11L95.94 73.649c2.155-3.92 3.784-8.416 3.985-13.221a17.138 17.138 0 00-4.658-12.45zM60.928 81.076h.136c3.28.036 6.347 1.382 8.634 3.792a12.73 12.73 0 013.458 9.247c-.409 9.778-8.268 18.578-11.628 21.908a.853.853 0 01-1.197.002c-3.502-3.47-11.646-12.627-11.646-22.706 0-3.295 1.29-6.386 3.633-8.704a12.157 12.157 0 018.61-3.54zm22.986 1.077a.853.853 0 01-1.198.002c-3.5-3.47-11.645-12.628-11.645-22.706 0-3.295 1.29-6.386 3.633-8.704a12.157 12.157 0 018.746-3.538c3.28.035 6.347 1.382 8.634 3.791a12.729 12.729 0 013.457 9.247c-.408 9.777-8.267 18.578-11.627 21.908z"/><path d="M90.379 57.797a2.194 2.194 0 00-2.194 2.195 4.876 4.876 0 01-4.87 4.87 4.876 4.876 0 01-4.87-4.87 4.876 4.876 0 015.836-4.775 2.195 2.195 0 00.865-4.303 9.323 9.323 0 00-1.831-.18c-5.106 0-9.259 4.153-9.259 9.258 0 5.105 4.154 9.258 9.259 9.258s9.258-4.153 9.258-9.258a2.194 2.194 0 00-2.194-2.195zm-29.45 45.323c5.105 0 9.258-4.154 9.258-9.259s-4.153-9.258-9.258-9.258c-5.105 0-9.259 4.153-9.259 9.258 0 5.105 4.154 9.259 9.259 9.259zm0-14.13a4.875 4.875 0 014.87 4.87 4.875 4.875 0 01-4.87 4.87 4.876 4.876 0 01-4.87-4.87 4.876 4.876 0 014.87-4.87zM38.29 17.174c0-5.105-4.154-9.258-9.26-9.258-5.104 0-9.258 4.153-9.258 9.258 0 5.105 4.153 9.258 9.258 9.258 5.105 0 9.26-4.153 9.26-9.258zm-14.13 0a4.876 4.876 0 014.87-4.87 4.876 4.876 0 014.87 4.87 4.875 4.875 0 01-4.87 4.87 4.875 4.875 0 01-4.87-4.87z"/></g><defs><clipPath id="clip0"><path fill="#fff" d="M0 0h150v150H0z"/></clipPath></defs></svg>