<svg width="150" height="150" viewBox="0 0 150 150" fill="none" xmlns="http://www.w3.org/2000/svg"><path d="M148.886 44.117c-4.435-21.98-20.31-36.183-40.447-36.183-10.638 0-22.163 4.128-33.427 11.96C63.59 11.714 52.278 7.569 41.36 7.569c-20.25 0-36.058 14.358-40.27 36.573-6.18 32.21 13.425 74.964 71.158 97.872.044.017.088.033.133.047a7.156 7.156 0 005.218 0c.05-.017.1-.035.15-.055 26.491-10.732 47.038-26.463 59.42-45.491 10.871-16.708 15.033-35.31 11.72-52.38l-.004-.018zm-15.914 49.666c-11.807 18.146-31.526 33.204-57.025 43.55-.31.107-.63.179-.956.213a4.303 4.303 0 01-.965-.216C19.01 115.474.221 75.257 6.011 45.08c1.86-9.81 6.174-18.039 12.475-23.795 6.235-5.698 14.145-8.707 22.875-8.707 10.283 0 21.094 4.176 32.132 12.41.88.655 2.081.663 2.969.02 10.875-7.894 21.933-12.066 31.977-12.066 8.707 0 16.629 2.997 22.908 8.671 6.309 5.7 10.677 13.824 12.627 23.487 3.062 15.784-.846 33.072-11.002 48.683z" fill="#181818"/><path d="M104.031 50.331H90.96v-1.837a7.869 7.869 0 00-7.858-7.867H66.887a7.868 7.868 0 00-7.857 7.867v1.837H45.958c-4.266 0-7.588 3.54-7.588 7.946v37.091c0 4.407 3.322 7.866 7.588 7.866h58.073c4.265 0 7.589-3.46 7.589-7.866v-37.09c0-4.407-3.324-7.947-7.589-7.947zm-39.992-1.837a2.854 2.854 0 012.848-2.858h16.215a2.855 2.855 0 012.85 2.858v1.837H64.038v-1.837zm39.992 49.732H45.957c-1.502 0-2.578-1.213-2.578-2.858v-10.81a5.93 5.93 0 002.579.52h58.073a5.931 5.931 0 002.58-.52v10.81c0 1.645-1.076 2.858-2.58 2.858zm2.58-21.144c0 1.645-1.076 2.988-2.58 2.988H45.957c-1.502 0-2.578-1.343-2.578-2.988V58.277c0-1.645 1.075-2.937 2.579-2.937h58.073c1.503 0 2.58 1.292 2.58 2.937v18.805z" fill="#181818"/><path d="M80.003 64.731H69.986a2.504 2.504 0 100 5.009h10.017a2.504 2.504 0 000-5.009z" fill="#181818"/></svg>