<svg width="150" height="150" viewBox="0 0 150 150" fill="none" xmlns="http://www.w3.org/2000/svg"><g clip-path="url(#clip0)" fill="#181818"><path d="M61.629 132.975l-.44 2.152.424-2.155a2.198 2.198 0 00-.85 4.311l.04.008a2.196 2.196 0 002.57-1.745 2.196 2.196 0 00-1.744-2.571zm16.799.706l.219 2.185-.226-2.184a2.197 2.197 0 10.45 4.371l.06-.006a2.192 2.192 0 001.921-2.427 2.206 2.206 0 00-2.424-1.939zm-8.411.277l-.032-.002a2.185 2.185 0 00-2.277 2.098 2.209 2.209 0 002.11 2.293c.034.003.068.003.102.003a2.196 2.196 0 00.097-4.392zm-16.504-3.216l-.028-.011a2.186 2.186 0 00-2.797 1.33 2.21 2.21 0 002.08 2.946c.901 0 1.747-.557 2.069-1.455a2.195 2.195 0 00-1.324-2.81zm33.208 1.401l.541 2.129-.548-2.127a2.197 2.197 0 101.155 4.24 2.19 2.19 0 001.537-2.685 2.203 2.203 0 00-2.685-1.557zm7.943-2.771l.871 2.016-.877-2.014a2.199 2.199 0 001.754 4.03l.054-.024a2.191 2.191 0 001.096-2.894 2.202 2.202 0 00-2.898-1.114zM45.12 29.209a2.197 2.197 0 10-1.026-4.138l-.028.013a2.186 2.186 0 00-.891 2.967 2.198 2.198 0 001.944 1.158zM19.703 53.75a2.194 2.194 0 002.968-.925l.039-.077a2.196 2.196 0 00-1.003-2.94 2.196 2.196 0 00-2.93.98 2.198 2.198 0 00.926 2.963zm-3.093 8.267a2.196 2.196 0 002.786-1.377l.028-.087a2.197 2.197 0 00-4.193-1.317 2.198 2.198 0 001.38 2.78zm7.428-15.953a2.195 2.195 0 003.07-.484l.028-.04a2.195 2.195 0 00-.509-3.06 2.2 2.2 0 00-3.066.505l1.77 1.303-1.777-1.294a2.197 2.197 0 00.484 3.07zM37.66 33.955c.462 0 .926-.146 1.323-.448a2.197 2.197 0 10-2.595-3.545l-.055.04a2.202 2.202 0 00-.425 3.082c.433.57 1.089.87 1.752.87zM14.649 95.34a2.194 2.194 0 002.744 1.45 2.2 2.2 0 001.459-2.731 2.197 2.197 0 00-4.232 1.184l.029.097zm16.374-55.595c.57 0 1.142-.22 1.573-.66a2.198 2.198 0 00-3.108-3.107l-.037.037a2.195 2.195 0 001.572 3.73zM17.077 85.76a2.199 2.199 0 00-4.361.544l.012.087a2.193 2.193 0 002.492 1.851 2.2 2.2 0 001.857-2.482zm-2.76-6.293h.066c1.183 0 2.16-.941 2.195-2.132l.002-.094a2.197 2.197 0 00-4.394-.029 2.197 2.197 0 002.13 2.255zm.481-8.812a2.2 2.2 0 002.55-1.776c.007-.032.011-.064.016-.096a2.196 2.196 0 00-1.854-2.494 2.199 2.199 0 00-2.489 1.823 2.199 2.199 0 001.777 2.543zm103.649-23.898a2.189 2.189 0 003.052.56 2.2 2.2 0 00.566-3.055l-1.827 1.223 1.82-1.233a2.198 2.198 0 00-3.638 2.466l.027.04zm11.221 22.111a2.196 2.196 0 00-1.937 2.43l.011.095a2.2 2.2 0 002.487 1.864 2.199 2.199 0 001.868-2.458 2.2 2.2 0 00-2.429-1.93zm-3.708-6.2l.01.029a2.197 2.197 0 104.216-1.241l-.01-.029a2.198 2.198 0 00-4.216 1.24zm-3.104-8.216a2.21 2.21 0 001.982 1.234c.324 0 .654-.072.964-.225a2.19 2.19 0 001.004-2.935l-1.992.928 1.989-.932a2.196 2.196 0 10-3.979 1.865l.032.065zm-9.943-14.557c.43.44.999.66 1.569.66a2.195 2.195 0 001.588-3.715 2.197 2.197 0 00-3.224 2.986l.067.07zm17.469 38.148a2.204 2.204 0 00-2.26 2.123 2.198 2.198 0 004.389.222l.003-.09a2.193 2.193 0 00-2.132-2.255zm-31.52-48.937l.052.028c.328.174.679.257 1.025.257a2.198 2.198 0 001.042-4.134l-1.063 1.923 1.056-1.927a2.197 2.197 0 00-2.112 3.853zm7.432 4.819l.034.026a2.193 2.193 0 003.078-.423 2.197 2.197 0 00-.422-3.079l-.015-.01a2.196 2.196 0 10-2.675 3.486z"/><path d="M148.644 111.308l-10.315-10.333a4.61 4.61 0 00-3.285-1.363 4.61 4.61 0 00-3.285 1.363l-.239.239-.677-.678a8.85 8.85 0 01-1.924-2.878 2.177 2.177 0 00-.157-.407 8.896 8.896 0 01-.511-2.985v-2.923a2.183 2.183 0 001.027.254 2.198 2.198 0 002.159-1.8 2.198 2.198 0 00-3.2-2.36 12.388 12.388 0 00-3.631-8.262L114.599 69.15a11.802 11.802 0 00-8.407-3.487c-2.458 0-4.8.745-6.775 2.124l-1.062-1.068V41.59c0-3.03-1.1-5.952-3.096-8.228a8.867 8.867 0 01-2.201-5.853v-1.841h.15a4.65 4.65 0 004.646-4.647V6.404a4.65 4.65 0 00-4.645-4.646H52.164a4.65 4.65 0 00-4.645 4.646V21.02a4.65 4.65 0 004.645 4.647h.34v.963a8.816 8.816 0 01-2.594 6.27l-4.43 4.439a12.396 12.396 0 00-3.645 8.815V60.33c0 1.926.462 3.744 1.276 5.356a11.8 11.8 0 00-7.71 3.465L25.394 79.175a12.398 12.398 0 00-3.644 8.815v6.276a8.81 8.81 0 01-2.593 6.27l-.67.671-.007.007-.238-.239a4.612 4.612 0 00-3.286-1.363 4.61 4.61 0 00-3.284 1.363L1.356 111.308a4.658 4.658 0 000 6.571l3.533 3.537a2.196 2.196 0 103.11-3.105l-3.532-3.538c-.1-.1-.1-.261 0-.361l10.315-10.333a.247.247 0 01.35 0l1.793 1.797 24.488 24.529 2.743 2.749c.1.1.1.261 0 .361L33.84 143.848a.247.247 0 01-.35 0l-19.27-19.305a2.196 2.196 0 10-3.11 3.104l19.273 19.305a4.61 4.61 0 003.285 1.363 4.61 4.61 0 003.285-1.363l10.314-10.332a4.658 4.658 0 000-6.571l-.112-.112 1.301-1.303a8.828 8.828 0 015.685-2.577 12.437 12.437 0 008-3.628l9.476-9.496a7.525 7.525 0 005.438-5.732 7.445 7.445 0 003.211.725c4.133 0 7.495-3.366 7.495-7.504v-5.218a7.446 7.446 0 003.1.675c4.133 0 7.494-3.366 7.494-7.504V72.95l6.759 6.792c.429.432.993.647 1.557.647a2.197 2.197 0 001.558-3.747l-5.635-5.662a7.431 7.431 0 013.599-.922c2 0 3.882.78 5.296 2.199l10.007 10.023a8.033 8.033 0 012.361 5.71v6.276c0 3.542 1.377 6.871 3.876 9.375l.682.683-3.187 3.193-19.276 19.31-1.075-1.077-.033-.032-.189-.19a13.231 13.231 0 00-8.509-3.857 8.06 8.06 0 01-5.182-2.351l-7.22-7.182a2.197 2.197 0 10-3.1 3.115l7.217 7.176a12.438 12.438 0 008.001 3.628 8.833 8.833 0 015.684 2.576l.106.106c.057.065.118.126.182.183l1.013 1.014-.112.113a4.656 4.656 0 000 6.571l10.314 10.332a4.612 4.612 0 003.286 1.363c1.24 0 2.408-.484 3.285-1.363l29.025-29.074a4.657 4.657 0 000-6.57zm-18.921-21.85l-.041-.006-.4-.082.441.088zM59.03 119.325a8.042 8.042 0 01-5.174 2.347 13.231 13.231 0 00-8.51 3.857l-1.296 1.299-1.168-1.17-.044-.044-21.252-21.289.682-.683a13.183 13.183 0 003.876-9.375V87.99a8.03 8.03 0 012.36-5.71l10.008-10.023a7.432 7.432 0 015.296-2.199c1.283 0 2.517.323 3.61.928l-5.644 5.654a2.198 2.198 0 003.11 3.105l6.743-6.755v27.432c0 4.138 3.362 7.504 7.494 7.504a7.45 7.45 0 003.253-.744 7.53 7.53 0 003.724 5.059l-7.068 7.083zm34.93-30.948a3.109 3.109 0 01-3.1 3.11c-1.71 0-3.1-1.396-3.1-3.11v-24.51a2.197 2.197 0 10-4.394 0v36.557a3.107 3.107 0 01-3.1 3.108 3.105 3.105 0 01-3.055-2.594V63.841a2.196 2.196 0 00-3.273-1.916 2.197 2.197 0 00-1.167 1.941v36.556c0 .279.016.553.046.824v4.428a3.108 3.108 0 01-3.1 3.109 3.108 3.108 0 01-3.1-3.109v-41.86a2.198 2.198 0 00-4.396 0v36.608a3.108 3.108 0 01-3.098 3.109c-1.71 0-3.1-1.395-3.1-3.109V59.549a2.198 2.198 0 10-4.395 0v7.56c-.184.06-.363.143-.529.253a7.519 7.519 0 01-4.87-7.032V46.154c0-2.157.84-4.185 2.361-5.71l4.43-4.439a13.18 13.18 0 003.878-9.375v-.963h4.417a2.197 2.197 0 100-4.395h-9.15a.252.252 0 01-.251-.252V6.404c0-.138.112-.252.25-.252h41.044c.14 0 .251.114.251.252V21.02a.25.25 0 01-.251.252H71.63a2.197 2.197 0 100 4.395h17.032v1.841c0 3.223 1.169 6.33 3.291 8.752a8.078 8.078 0 012.007 5.329v46.787zm51.573 26.397l-29.024 29.075a.236.236 0 01-.175.073.238.238 0 01-.175-.073l-10.315-10.333a.257.257 0 010-.361l1.661-1.664.001-.001 16.849-16.878 10.514-10.532a.246.246 0 01.349 0l10.315 10.333c.1.1.1.261 0 .361z"/><path d="M59.121 11.369a2.344 2.344 0 000 4.687 2.344 2.344 0 000-4.687zm76.641 100.161a2.344 2.344 0 000 4.687 2.344 2.344 0 000-4.687zm-99.145 22.416a2.345 2.345 0 00-2.34-2.344 2.345 2.345 0 000 4.688c1.29 0 2.34-1.052 2.34-2.344z"/></g><defs><clipPath id="clip0"><path fill="#fff" d="M0 0h150v150H0z"/></clipPath></defs></svg>