<svg width="34" height="34" viewBox="0 0 34 34" fill="none" xmlns="http://www.w3.org/2000/svg"><path fill-rule="evenodd" clip-rule="evenodd" d="M22.667 4.25H11.333a7.083 7.083 0 00-7.083 7.083v11.334a7.083 7.083 0 007.083 7.083h11.334a7.083 7.083 0 007.083-7.083V11.333a7.083 7.083 0 00-7.083-7.083zm4.604 18.417a4.618 4.618 0 01-4.604 4.604H11.333a4.618 4.618 0 01-4.604-4.604V11.333a4.618 4.618 0 014.604-4.604h11.334a4.618 4.618 0 014.604 4.604v11.334zm-3.542-10.98a1.417 1.417 0 100-2.833 1.417 1.417 0 000 2.834zM17 10.626A6.375 6.375 0 1023.375 17 6.361 6.361 0 0017 10.625zM13.104 17a3.896 3.896 0 107.792 0 3.896 3.896 0 00-7.792 0z" fill="#181818"/></svg>