<svg width="18" height="18" viewBox="0 0 18 18" fill="none" xmlns="http://www.w3.org/2000/svg"><path fill-rule="evenodd" clip-rule="evenodd" d="M15 7.5a6 6 0 00-12 0c0 2.808 1.373 3.912 2.647 4.937.842.678 1.642 1.32 1.973 2.398l.382 1.155a.75.75 0 00.75.51h.42a.75.75 0 00.75-.51l.383-1.155c.358-1.07 1.166-1.71 2.012-2.382C13.613 11.423 15 10.323 15 7.5zM9 3a4.5 4.5 0 00-4.5 4.5c0 2.1.885 2.805 2.115 3.75A6.878 6.878 0 019 14.047a6.938 6.938 0 012.385-2.797c1.23-.945 2.115-1.65 2.115-3.75A4.5 4.5 0 009 3zm1.5 4.5a1.5 1.5 0 11-3 0 1.5 1.5 0 013 0z" fill="#fff"/></svg>