<svg width="110" height="82" viewBox="0 0 110 82" fill="none" xmlns="http://www.w3.org/2000/svg"><path fill="#FDEC41" stroke="#000" stroke-width="2.127" d="M42.24 29.721h25.253v8.506H42.24z"/><mask id="a" fill="#fff"><path fill-rule="evenodd" clip-rule="evenodd" d="M76 5H34v42h42V5zm-9.57 9.57H43.57v22.86h22.86V14.57z"/></mask><path fill-rule="evenodd" clip-rule="evenodd" d="M76 5H34v42h42V5zm-9.57 9.57H43.57v22.86h22.86V14.57z" fill="#A7EAF3"/><path d="M34 5V3.14h-1.86V5H34zm42 0h1.86V3.14H76V5zM34 47h-1.86v1.86H34V47zm42 0v1.86h1.86V47H76zM43.57 14.57v-1.861h-1.861v1.86h1.86zm22.86 0h1.861v-1.861h-1.86v1.86zM43.57 37.43h-1.861v1.861h1.86v-1.86zm22.86 0v1.861h1.861v-1.86h-1.86zM34 6.86h42V3.14H34v3.72zM35.86 47V5h-3.72v42h3.72zM76 45.14H34v3.72h42v-3.72zM74.14 5v42h3.72V5h-3.72zM43.57 16.43h22.86v-3.72H43.57v3.721zm1.86 21V14.57h-3.72v22.86h3.721zm21-1.86H43.57v3.721h22.86V35.57zm-1.86-21v22.86h3.721V14.57H64.57z" fill="#000" mask="url(#a)"/><path d="M54.203 12.709V6.86h19.936v38.278l-5.848-5.848V12.71H54.203z" fill="#003B9F"/><path d="M35.86 6.86l5.849 5.849h12.494V6.86H35.86z" fill="#FF8761"/><circle cx="55" cy="21.481" r="5.051" fill="#FFB800"/><path d="M10.68 53.6c.76 0 1.42.128 1.98.384.56.248.992.608 1.296 1.08.304.464.456 1.012.456 1.644 0 .632-.152 1.18-.456 1.644-.304.464-.736.824-1.296 1.08-.56.248-1.22.372-1.98.372H9.216V62H6.84v-8.4h3.84zm-.144 4.332c.488 0 .856-.104 1.104-.312.248-.216.372-.52.372-.912s-.124-.696-.372-.912c-.248-.216-.616-.324-1.104-.324h-1.32v2.46h1.32zm8.707 1.836h-1.296V62H15.57v-8.4h3.84c.76 0 1.42.128 1.98.384.56.248.992.608 1.296 1.08.305.464.456 1.012.456 1.644 0 .608-.143 1.14-.431 1.596-.28.448-.684.8-1.212 1.056L23.31 62h-2.544l-1.524-2.232zm1.5-3.06c0-.392-.124-.696-.372-.912-.248-.216-.616-.324-1.104-.324h-1.32v2.46h1.32c.488 0 .855-.104 1.104-.312.248-.216.372-.52.372-.912zm10.934 4.656c-.432.248-.956.444-1.572.588a8.408 8.408 0 01-1.92.216c-.896 0-1.66-.108-2.292-.324-.624-.216-1.096-.516-1.416-.9a2.051 2.051 0 01-.468-1.332c0-.44.12-.828.36-1.164a2.33 2.33 0 01.996-.78c-.328-.168-.58-.4-.756-.696a2.025 2.025 0 01-.252-.996c0-.464.144-.888.432-1.272.296-.384.744-.692 1.344-.924.6-.232 1.34-.348 2.22-.348.552 0 1.096.052 1.632.156a6.899 6.899 0 011.416.42l-.648 1.776a5.655 5.655 0 00-2.304-.492c-.568 0-.992.076-1.272.228-.28.144-.42.348-.42.612 0 .48.348.72 1.044.72h2.376v1.812h-2.532c-.408 0-.716.068-.924.204a.632.632 0 00-.312.576c0 .272.152.484.456.636.304.152.776.228 1.416.228.456 0 .924-.06 1.404-.18.488-.128.912-.3 1.272-.516l.72 1.752zm7.306-5.124a6.836 6.836 0 00-2.147-.78V62h-2.377v-6.54a6.563 6.563 0 00-2.148.78l-.791-1.728a7.29 7.29 0 011.932-.804 8.741 8.741 0 012.196-.276c.752 0 1.48.092 2.183.276.712.184 1.36.452 1.944.804l-.791 1.728zm7.922 0a6.836 6.836 0 00-2.148-.78V62h-2.376v-6.54a6.563 6.563 0 00-2.148.78l-.792-1.728a7.29 7.29 0 011.932-.804 8.741 8.741 0 012.196-.276c.752 0 1.48.092 2.184.276.712.184 1.36.452 1.944.804l-.792 1.728zm9.266-2.64v5.7c0 .848-.168 1.576-.504 2.184a3.236 3.236 0 01-1.44 1.356c-.616.312-1.348.468-2.196.468-.744 0-1.42-.096-2.028-.288a4.639 4.639 0 01-1.548-.792l.888-1.716c.384.28.796.492 1.236.636.44.144.892.216 1.356.216.64 0 1.108-.156 1.404-.468.304-.312.456-.8.456-1.464v-.384c-.536.648-1.292.972-2.268.972-1.056 0-1.868-.3-2.436-.9-.568-.608-.852-1.476-.852-2.604V53.6h2.376v2.76c0 .568.128.996.384 1.284.264.28.644.42 1.14.42.504 0 .904-.148 1.2-.444.304-.296.456-.756.456-1.38V53.6h2.376zm8.775 6.168H63.65V62h-2.376v-8.4h3.84c.76 0 1.42.128 1.98.384.56.248.992.608 1.296 1.08.304.464.456 1.012.456 1.644 0 .608-.144 1.14-.432 1.596-.28.448-.684.8-1.212 1.056L69.014 62H66.47l-1.524-2.232zm1.5-3.06c0-.392-.124-.696-.372-.912-.248-.216-.616-.324-1.104-.324h-1.32v2.46h1.32c.488 0 .856-.104 1.104-.312.248-.216.372-.52.372-.912zm7.946 5.46c-.888 0-1.688-.188-2.4-.564a4.292 4.292 0 01-1.668-1.56c-.4-.664-.6-1.412-.6-2.244 0-.832.2-1.58.6-2.244a4.292 4.292 0 011.668-1.56c.712-.376 1.512-.564 2.4-.564.888 0 1.684.188 2.388.564a4.185 4.185 0 011.668 1.56c.408.664.612 1.412.612 2.244 0 .832-.204 1.58-.612 2.244a4.185 4.185 0 01-1.668 1.56c-.704.376-1.5.564-2.388.564zm0-1.968c.424 0 .808-.1 1.152-.3.344-.2.616-.48.816-.84.2-.368.3-.788.3-1.26s-.1-.888-.3-1.248a2.148 2.148 0 00-.816-.852 2.25 2.25 0 00-1.152-.3c-.424 0-.808.1-1.152.3-.344.2-.616.484-.816.852-.2.36-.3.776-.3 1.248s.1.892.3 1.26c.2.36.472.64.816.84.344.2.728.3 1.152.3zm10.149 1.968c-.888 0-1.688-.188-2.4-.564a4.292 4.292 0 01-1.668-1.56c-.4-.664-.6-1.412-.6-2.244 0-.832.2-1.58.6-2.244a4.292 4.292 0 011.668-1.56c.712-.376 1.512-.564 2.4-.564.888 0 1.684.188 2.388.564a4.185 4.185 0 011.668 1.56c.408.664.612 1.412.612 2.244 0 .832-.204 1.58-.612 2.244a4.185 4.185 0 01-1.668 1.56c-.704.376-1.5.564-2.388.564zm0-1.968c.424 0 .808-.1 1.152-.3.344-.2.616-.48.816-.84.2-.368.3-.788.3-1.26s-.1-.888-.3-1.248a2.148 2.148 0 00-.816-.852 2.25 2.25 0 00-1.152-.3c-.424 0-.808.1-1.152.3-.344.2-.616.484-.816.852-.2.36-.3.776-.3 1.248s.1.892.3 1.26c.2.36.472.64.816.84.344.2.728.3 1.152.3zm15.74-6.768c.992 0 1.764.296 2.316.888.56.584.84 1.432.84 2.544V62h-2.376v-5.064c0-.504-.132-.884-.396-1.14-.264-.264-.616-.396-1.056-.396-.472 0-.848.14-1.128.42-.272.272-.408.684-.408 1.236V62h-2.376v-5.064c0-.504-.124-.884-.372-1.14-.24-.264-.572-.396-.996-.396-.456 0-.82.14-1.092.42-.272.272-.408.684-.408 1.236V62h-2.376v-8.4h2.304v.936c.256-.36.584-.632.984-.816.408-.192.88-.288 1.416-.288.552 0 1.032.1 1.44.3.416.2.752.492 1.008.876a2.732 2.732 0 011.128-.876c.464-.2.98-.3 1.548-.3zM26.7 67.58V75h-.49v-1.23c-.207.407-.497.72-.87.94-.373.22-.797.33-1.27.33a2.59 2.59 0 01-1.32-.34 2.47 2.47 0 01-.93-.94c-.22-.4-.33-.857-.33-1.37 0-.513.11-.97.33-1.37a2.38 2.38 0 01.93-.94 2.59 2.59 0 011.32-.34c.467 0 .883.11 1.25.33.373.22.667.527.88.92v-3.41h.5zm-2.6 7.01c.4 0 .757-.093 1.07-.28.32-.187.57-.447.75-.78.187-.333.28-.713.28-1.14 0-.427-.093-.807-.28-1.14a1.965 1.965 0 00-.75-.78 2.05 2.05 0 00-1.07-.28c-.4 0-.76.093-1.08.28a2.06 2.06 0 00-.75.78 2.36 2.36 0 00-.27 1.14c0 .427.09.807.27 1.14.187.333.437.593.75.78.32.187.68.28 1.08.28zm6.848 0c.34 0 .653-.06.94-.18a1.88 1.88 0 00.73-.55l.29.33c-.227.28-.51.493-.85.64-.34.14-.713.21-1.12.21-.52 0-.987-.113-1.4-.34a2.502 2.502 0 01-.96-.94 2.73 2.73 0 01-.34-1.37c0-.513.107-.97.32-1.37.22-.4.523-.713.91-.94.387-.227.823-.34 1.31-.34.453 0 .86.107 1.22.32.367.207.657.497.87.87.22.367.34.78.36 1.24l-4.41.86c.127.48.38.86.76 1.14.38.28.837.42 1.37.42zm-.17-4.41c-.393 0-.747.093-1.06.28-.313.18-.557.437-.73.77-.173.327-.26.7-.26 1.12 0 .073.007.177.02.31l3.98-.78a2.083 2.083 0 00-.33-.86c-.173-.26-.4-.463-.68-.61a1.925 1.925 0 00-.94-.23zm5.317 4.86c-.42 0-.82-.063-1.2-.19s-.677-.287-.89-.48l.23-.4c.213.18.486.33.82.45.34.12.693.18 1.06.18.526 0 .913-.087 1.16-.26a.825.825 0 00.38-.72c0-.22-.07-.393-.21-.52-.133-.127-.3-.22-.5-.28-.2-.06-.477-.123-.83-.19a6.925 6.925 0 01-1-.24 1.568 1.568 0 01-.65-.42c-.18-.193-.27-.46-.27-.8 0-.413.17-.753.51-1.02.346-.273.837-.41 1.47-.41.333 0 .663.047.99.14.327.093.593.217.8.37l-.23.4a2.389 2.389 0 00-.73-.35 2.975 2.975 0 00-.84-.12c-.487 0-.853.09-1.1.27a.839.839 0 00-.37.71c0 .233.07.417.21.55.14.127.31.223.51.29.206.06.493.127.86.2.407.073.733.153.98.24.253.08.466.213.64.4.173.187.26.443.26.77 0 .433-.18.78-.54 1.04-.36.26-.867.39-1.52.39zm3.455-5.26h.5V75h-.5v-5.22zm.25-1.27a.414.414 0 01-.29-.11.395.395 0 01-.12-.29c0-.113.04-.21.12-.29.08-.08.177-.12.29-.12.114 0 .21.04.29.12.08.073.12.167.12.28 0 .113-.04.21-.12.29a.395.395 0 01-.29.12zm7.058 1.27v4.66c0 .867-.21 1.507-.63 1.92-.42.413-1.054.62-1.9.62-.48 0-.934-.073-1.36-.22-.427-.147-.77-.35-1.03-.61l.27-.38c.26.24.573.427.94.56a3.4 3.4 0 001.17.2c.693 0 1.206-.167 1.54-.5.333-.327.5-.837.5-1.53v-.88c-.214.38-.51.673-.89.88-.38.207-.807.31-1.28.31-.487 0-.93-.107-1.33-.32a2.437 2.437 0 01-.93-.91 2.541 2.541 0 01-.34-1.31c0-.487.113-.923.34-1.31.226-.387.536-.687.93-.9.4-.213.843-.32 1.33-.32.48 0 .913.107 1.3.32.386.213.683.513.89.9v-1.18h.48zm-2.63 4.58a2.31 2.31 0 001.1-.26c.326-.18.58-.427.76-.74.186-.32.28-.683.28-1.09a2.07 2.07 0 00-.28-1.08 1.866 1.866 0 00-.76-.73 2.241 2.241 0 00-1.1-.27c-.407 0-.774.09-1.1.27a1.95 1.95 0 00-.76.73c-.18.313-.27.673-.27 1.08 0 .407.09.77.27 1.09.186.313.44.56.76.74.326.173.693.26 1.1.26zm7.296-4.62c.653 0 1.17.19 1.55.57.38.38.57.927.57 1.64V75h-.5v-3.01c0-.587-.15-1.033-.45-1.34-.293-.307-.707-.46-1.24-.46-.613 0-1.097.183-1.45.55-.353.367-.53.86-.53 1.48V75h-.5v-5.22h.48v1.13c.18-.367.447-.653.8-.86.36-.207.783-.31 1.27-.31zm8.067 5.3c-.42 0-.82-.063-1.2-.19s-.677-.287-.89-.48l.23-.4c.213.18.487.33.82.45.34.12.693.18 1.06.18.527 0 .913-.087 1.16-.26a.825.825 0 00.38-.72c0-.22-.07-.393-.21-.52-.133-.127-.3-.22-.5-.28-.2-.06-.477-.123-.83-.19a6.925 6.925 0 01-1-.24 1.568 1.568 0 01-.65-.42c-.18-.193-.27-.46-.27-.8 0-.413.17-.753.51-1.02.347-.273.837-.41 1.47-.41.333 0 .663.047.99.14.327.093.593.217.8.37l-.23.4a2.389 2.389 0 00-.73-.35 2.975 2.975 0 00-.84-.12c-.487 0-.853.09-1.1.27a.839.839 0 00-.37.71c0 .233.07.417.21.55.14.127.31.223.51.29.207.06.493.127.86.2.407.073.733.153.98.24.253.08.467.213.64.4.173.187.26.443.26.77 0 .433-.18.78-.54 1.04-.36.26-.867.39-1.52.39zm5.885-.37c-.126.12-.286.213-.48.28-.186.06-.383.09-.59.09-.453 0-.803-.123-1.05-.37-.246-.253-.37-.603-.37-1.05v-4.98h.5v1.14h1.66v.43h-1.66v3.36c0 .34.08.6.24.78.167.173.41.26.73.26.327 0 .597-.097.81-.29l.21.35zm5.959-4.89V75h-.48v-1.12a1.97 1.97 0 01-.77.86c-.34.2-.74.3-1.2.3-.68 0-1.214-.19-1.6-.57-.387-.38-.58-.927-.58-1.64v-3.05h.5v3.01c0 .587.15 1.033.45 1.34.3.307.723.46 1.27.46.586 0 1.05-.183 1.39-.55.346-.367.52-.86.52-1.48v-2.78h.5zm6.76-2.2V75h-.49v-1.23a2.24 2.24 0 01-.87.94c-.374.22-.797.33-1.27.33a2.59 2.59 0 01-1.32-.34 2.47 2.47 0 01-.93-.94c-.22-.4-.33-.857-.33-1.37 0-.513.11-.97.33-1.37a2.38 2.38 0 01.93-.94c.392-.227.832-.34 1.32-.34.466 0 .883.11 1.25.33.373.22.666.527.88.92v-3.41h.5zm-2.6 7.01c.4 0 .756-.093 1.07-.28.32-.187.57-.447.75-.78.186-.333.28-.713.28-1.14 0-.427-.094-.807-.28-1.14a1.965 1.965 0 00-.75-.78 2.05 2.05 0 00-1.07-.28c-.4 0-.76.093-1.08.28a2.06 2.06 0 00-.75.78 2.36 2.36 0 00-.27 1.14c0 .427.09.807.27 1.14.186.333.436.593.75.78.32.187.68.28 1.08.28zm4.707-4.81h.5V75h-.5v-5.22zm.25-1.27a.414.414 0 01-.29-.11.395.395 0 01-.12-.29c0-.113.04-.21.12-.29.08-.08.177-.12.29-.12.113 0 .21.04.29.12.08.073.12.167.12.28 0 .113-.04.21-.12.29a.395.395 0 01-.29.12zm4.398 6.53a2.67 2.67 0 01-1.34-.34 2.47 2.47 0 01-.93-.94 2.765 2.765 0 01-.34-1.37c0-.507.113-.96.34-1.36a2.45 2.45 0 01.93-.95c.4-.227.846-.34 1.34-.34.493 0 .936.113 1.33.34.4.227.713.543.94.95.226.4.34.853.34 1.36 0 .507-.114.963-.34 1.37-.227.4-.54.713-.94.94-.394.227-.837.34-1.33.34zm0-.45c.4 0 .756-.093 1.07-.28.32-.187.57-.447.75-.78.186-.333.28-.713.28-1.14 0-.427-.094-.807-.28-1.14a1.965 1.965 0 00-.75-.78 2.05 2.05 0 00-1.07-.28c-.4 0-.76.093-1.08.28a2.06 2.06 0 00-.75.78 2.36 2.36 0 00-.27 1.14c0 .427.09.807.27 1.14.186.333.436.593.75.78.32.187.68.28 1.08.28z" fill="#fff"/></svg>