<svg width="34" height="34" viewBox="0 0 34 34" xmlns="http://www.w3.org/2000/svg"><path d="M31.124 9.157a11.317 11.317 0 01-2.617 2.52v.777a17.27 17.27 0 01-5.13 12.313 17.253 17.253 0 01-12.368 4.981A17.307 17.307 0 013.3 27.965a.354.354 0 01-.212-.325v-.156c0-.203.164-.368.368-.368a12.53 12.53 0 007.242-2.604 6.181 6.181 0 01-5.503-3.623.368.368 0 01.368-.51 5.657 5.657 0 002.15-.198 6.17 6.17 0 01-4.88-5.391.368.368 0 01.51-.368c.704.31 1.464.474 2.234.48a6.059 6.059 0 01-2.418-6.99.764.764 0 011.287-.255 17.48 17.48 0 0011.896 5.49 5.659 5.659 0 01-.17-1.414 6.165 6.165 0 0110.623-4.16 12.288 12.288 0 003.381-1.176.24.24 0 01.255 0 .24.24 0 010 .255 6.184 6.184 0 01-2.49 2.83c.967-.112 1.917-.34 2.83-.679a.226.226 0 01.254 0 .24.24 0 01.099.354z"/></svg>